<mxfile host="Electron" agent="Mozilla/5.0 (Windows NT 10.0; Win64; x64) AppleWebKit/537.36 (KHTML, like Gecko) draw.io/24.7.17 Chrome/128.0.6613.36 Electron/32.0.1 Safari/537.36" version="24.7.17">
  <diagram id="R2lEEEUBdFMjLlhIrx00" name="Page-1">
    <mxGraphModel dx="5386" dy="1774" grid="1" gridSize="10" guides="1" tooltips="1" connect="1" arrows="1" fold="1" page="1" pageScale="1" pageWidth="850" pageHeight="1100" math="0" shadow="0" extFonts="Permanent Marker^https://fonts.googleapis.com/css?family=Permanent+Marker">
      <root>
        <mxCell id="0" />
        <mxCell id="1" parent="0" />
        <mxCell id="Cum-z6h_cHzM4pWFLKQP-2" value="" style="ellipse;whiteSpace=wrap;html=1;fontSize=25;" parent="1" vertex="1">
          <mxGeometry x="-1470" y="240" width="160" height="84.17" as="geometry" />
        </mxCell>
        <mxCell id="Cum-z6h_cHzM4pWFLKQP-1" value="" style="ellipse;whiteSpace=wrap;html=1;fontSize=25;" parent="1" vertex="1">
          <mxGeometry x="-10" y="1685" width="120" height="70" as="geometry" />
        </mxCell>
        <mxCell id="WUSuxIz9srzla0MGMRCR-62" value="" style="rhombus;whiteSpace=wrap;html=1;fontSize=25;" parent="1" vertex="1">
          <mxGeometry x="-787.5" y="1402.5" width="132.5" height="125" as="geometry" />
        </mxCell>
        <mxCell id="cPYR2mUjyV-IgGl8xkyW-12" value="" style="ellipse;whiteSpace=wrap;html=1;fontSize=25;" parent="1" vertex="1">
          <mxGeometry x="-195" y="600" width="185" height="110" as="geometry" />
        </mxCell>
        <mxCell id="XMGHCFaLuTb-ErzqM0Ou-1" value="Customer" style="rounded=0;whiteSpace=wrap;html=1;fillColor=#d5e8d4;strokeColor=#82b366;fontSize=25;" parent="1" vertex="1">
          <mxGeometry x="-1195" y="300" width="120" height="60" as="geometry" />
        </mxCell>
        <mxCell id="XMGHCFaLuTb-ErzqM0Ou-2" value="&#xa;Feedback&#xa;&#xa;" style="rounded=0;whiteSpace=wrap;html=1;fillColor=#d5e8d4;strokeColor=#82b366;fontSize=25;" parent="1" vertex="1">
          <mxGeometry x="-1285" y="700" width="155" height="90" as="geometry" />
        </mxCell>
        <mxCell id="XMGHCFaLuTb-ErzqM0Ou-4" value="Inventory" style="rounded=0;whiteSpace=wrap;html=1;fillColor=#d5e8d4;strokeColor=#82b366;fontSize=25;" parent="1" vertex="1">
          <mxGeometry x="-235" y="910" width="120" height="60" as="geometry" />
        </mxCell>
        <mxCell id="XMGHCFaLuTb-ErzqM0Ou-7" value="&#xa;Service&#xa;&#xa;" style="rounded=0;whiteSpace=wrap;html=1;fillColor=#d5e8d4;strokeColor=#82b366;fontSize=25;" parent="1" vertex="1">
          <mxGeometry x="-622.5" y="730" width="120" height="60" as="geometry" />
        </mxCell>
        <mxCell id="XMGHCFaLuTb-ErzqM0Ou-10" value="&#xa;Service_ID&#xa;&#xa;" style="ellipse;whiteSpace=wrap;html=1;fontStyle=4;fontSize=25;" parent="1" vertex="1">
          <mxGeometry x="-845" y="530" width="187.5" height="89.17" as="geometry" />
        </mxCell>
        <mxCell id="XMGHCFaLuTb-ErzqM0Ou-13" value="&#xa;Address&#xa;&#xa;" style="ellipse;whiteSpace=wrap;html=1;fontSize=25;" parent="1" vertex="1">
          <mxGeometry x="-1420" y="340" width="170" height="80" as="geometry" />
        </mxCell>
        <mxCell id="XMGHCFaLuTb-ErzqM0Ou-14" value="&#xa;Phone&#xa;&#xa;" style="ellipse;whiteSpace=wrap;html=1;fontSize=25;" parent="1" vertex="1">
          <mxGeometry x="-1462.5" y="247.5" width="145" height="69.17" as="geometry" />
        </mxCell>
        <mxCell id="XMGHCFaLuTb-ErzqM0Ou-15" value="&#xa;Email&#xa;&#xa;" style="ellipse;whiteSpace=wrap;html=1;fontSize=25;" parent="1" vertex="1">
          <mxGeometry x="-1400" y="100" width="145" height="75" as="geometry" />
        </mxCell>
        <mxCell id="XMGHCFaLuTb-ErzqM0Ou-17" value="&lt;br&gt;&lt;div&gt;Customer_ID&lt;br&gt;&lt;br&gt;&lt;/div&gt;" style="ellipse;whiteSpace=wrap;html=1;fontStyle=4;fontSize=25;" parent="1" vertex="1">
          <mxGeometry x="-1110" y="120" width="160" height="90" as="geometry" />
        </mxCell>
        <mxCell id="XMGHCFaLuTb-ErzqM0Ou-19" value="" style="endArrow=none;html=1;rounded=0;exitX=0.75;exitY=0;exitDx=0;exitDy=0;fontSize=25;" parent="1" source="XMGHCFaLuTb-ErzqM0Ou-1" target="XMGHCFaLuTb-ErzqM0Ou-17" edge="1">
          <mxGeometry width="50" height="50" relative="1" as="geometry">
            <mxPoint x="-1155" y="510" as="sourcePoint" />
            <mxPoint x="-1105" y="460" as="targetPoint" />
          </mxGeometry>
        </mxCell>
        <mxCell id="XMGHCFaLuTb-ErzqM0Ou-22" value="" style="endArrow=none;html=1;rounded=0;exitX=0.961;exitY=0.263;exitDx=0;exitDy=0;exitPerimeter=0;fontSize=25;" parent="1" source="XMGHCFaLuTb-ErzqM0Ou-13" edge="1">
          <mxGeometry width="50" height="50" relative="1" as="geometry">
            <mxPoint x="-1245" y="380" as="sourcePoint" />
            <mxPoint x="-1195" y="330" as="targetPoint" />
          </mxGeometry>
        </mxCell>
        <mxCell id="XMGHCFaLuTb-ErzqM0Ou-23" value="" style="endArrow=none;html=1;rounded=0;exitX=1;exitY=0.5;exitDx=0;exitDy=0;fontSize=25;" parent="1" source="XMGHCFaLuTb-ErzqM0Ou-14" edge="1">
          <mxGeometry width="50" height="50" relative="1" as="geometry">
            <mxPoint x="-1245" y="350" as="sourcePoint" />
            <mxPoint x="-1195" y="300" as="targetPoint" />
          </mxGeometry>
        </mxCell>
        <mxCell id="XMGHCFaLuTb-ErzqM0Ou-24" value="" style="endArrow=none;html=1;rounded=0;entryX=0.25;entryY=0;entryDx=0;entryDy=0;exitX=0.771;exitY=0.936;exitDx=0;exitDy=0;exitPerimeter=0;fontSize=25;" parent="1" source="XMGHCFaLuTb-ErzqM0Ou-15" target="XMGHCFaLuTb-ErzqM0Ou-1" edge="1">
          <mxGeometry width="50" height="50" relative="1" as="geometry">
            <mxPoint x="-1265" y="270" as="sourcePoint" />
            <mxPoint x="-1215" y="220" as="targetPoint" />
          </mxGeometry>
        </mxCell>
        <mxCell id="XMGHCFaLuTb-ErzqM0Ou-25" value="" style="endArrow=none;html=1;rounded=0;exitX=0.5;exitY=0;exitDx=0;exitDy=0;fontSize=25;" parent="1" source="XMGHCFaLuTb-ErzqM0Ou-16" target="XMGHCFaLuTb-ErzqM0Ou-1" edge="1">
          <mxGeometry width="50" height="50" relative="1" as="geometry">
            <mxPoint x="-1215" y="270" as="sourcePoint" />
            <mxPoint x="-1165" y="220" as="targetPoint" />
          </mxGeometry>
        </mxCell>
        <mxCell id="XMGHCFaLuTb-ErzqM0Ou-27" value="&#xa;Order_ID&#xa;&#xa;" style="ellipse;whiteSpace=wrap;html=1;fontStyle=4;fontSize=25;" parent="1" vertex="1">
          <mxGeometry x="-1280" y="840" width="180" height="80" as="geometry" />
        </mxCell>
        <mxCell id="XMGHCFaLuTb-ErzqM0Ou-28" value="&#xa;Service_Status&#xa;&#xa;" style="ellipse;whiteSpace=wrap;html=1;fontSize=25;" parent="1" vertex="1">
          <mxGeometry x="-647.5" y="514.17" width="207.5" height="92.14" as="geometry" />
        </mxCell>
        <mxCell id="XMGHCFaLuTb-ErzqM0Ou-30" value="" style="endArrow=none;html=1;rounded=0;fontSize=25;" parent="1" source="XMGHCFaLuTb-ErzqM0Ou-10" target="XMGHCFaLuTb-ErzqM0Ou-7" edge="1">
          <mxGeometry width="50" height="50" relative="1" as="geometry">
            <mxPoint x="-667.5" y="680" as="sourcePoint" />
            <mxPoint x="-617.5" y="630" as="targetPoint" />
          </mxGeometry>
        </mxCell>
        <mxCell id="XMGHCFaLuTb-ErzqM0Ou-32" value="" style="endArrow=none;html=1;rounded=0;entryX=0;entryY=1;entryDx=0;entryDy=0;fontSize=25;" parent="1" source="XMGHCFaLuTb-ErzqM0Ou-7" target="XMGHCFaLuTb-ErzqM0Ou-28" edge="1">
          <mxGeometry width="50" height="50" relative="1" as="geometry">
            <mxPoint x="-667.5" y="860" as="sourcePoint" />
            <mxPoint x="-617.5" y="810" as="targetPoint" />
          </mxGeometry>
        </mxCell>
        <mxCell id="XMGHCFaLuTb-ErzqM0Ou-34" value="&#xa;Order&#xa;&#xa;" style="rounded=0;whiteSpace=wrap;html=1;fillColor=#d5e8d4;strokeColor=#82b366;fontSize=25;" parent="1" vertex="1">
          <mxGeometry x="-1030" y="800" width="120" height="60" as="geometry" />
        </mxCell>
        <mxCell id="XMGHCFaLuTb-ErzqM0Ou-37" value="&#xa;Invoice_Date&#xa;&#xa;" style="ellipse;whiteSpace=wrap;html=1;fontSize=25;" parent="1" vertex="1">
          <mxGeometry x="-635" y="1210" width="195" height="80" as="geometry" />
        </mxCell>
        <mxCell id="XMGHCFaLuTb-ErzqM0Ou-39" value="&#xa;Invoice_ID&#xa;&#xa;" style="ellipse;whiteSpace=wrap;html=1;fontStyle=4;fontSize=25;" parent="1" vertex="1">
          <mxGeometry x="-720" y="1310" width="175" height="75" as="geometry" />
        </mxCell>
        <mxCell id="XMGHCFaLuTb-ErzqM0Ou-41" value="&lt;br style=&quot;font-size: 25px;&quot;&gt;Order_Status&lt;div style=&quot;font-size: 25px;&quot;&gt;&lt;br style=&quot;font-size: 25px;&quot;&gt;&lt;/div&gt;" style="ellipse;whiteSpace=wrap;html=1;fontSize=25;" parent="1" vertex="1">
          <mxGeometry x="-1130" y="1040" width="220" height="70" as="geometry" />
        </mxCell>
        <mxCell id="XMGHCFaLuTb-ErzqM0Ou-42" value="&#xa;Order_Date&#xa;&#xa;" style="ellipse;whiteSpace=wrap;html=1;fontSize=25;" parent="1" vertex="1">
          <mxGeometry x="-1322.5" y="1000" width="190" height="70" as="geometry" />
        </mxCell>
        <mxCell id="XMGHCFaLuTb-ErzqM0Ou-44" value="" style="endArrow=none;html=1;rounded=0;fontSize=25;" parent="1" source="XMGHCFaLuTb-ErzqM0Ou-27" target="XMGHCFaLuTb-ErzqM0Ou-34" edge="1">
          <mxGeometry width="50" height="50" relative="1" as="geometry">
            <mxPoint x="-1415" y="995" as="sourcePoint" />
            <mxPoint x="-1350" y="909.4186046511627" as="targetPoint" />
          </mxGeometry>
        </mxCell>
        <mxCell id="XMGHCFaLuTb-ErzqM0Ou-47" value="" style="endArrow=none;html=1;rounded=0;fontSize=25;" parent="1" source="XMGHCFaLuTb-ErzqM0Ou-42" target="XMGHCFaLuTb-ErzqM0Ou-34" edge="1">
          <mxGeometry width="50" height="50" relative="1" as="geometry">
            <mxPoint x="-1415" y="1245" as="sourcePoint" />
            <mxPoint x="-1350" y="934.591836734694" as="targetPoint" />
          </mxGeometry>
        </mxCell>
        <mxCell id="XMGHCFaLuTb-ErzqM0Ou-48" value="" style="endArrow=none;html=1;rounded=0;fontSize=25;" parent="1" source="XMGHCFaLuTb-ErzqM0Ou-41" target="XMGHCFaLuTb-ErzqM0Ou-34" edge="1">
          <mxGeometry width="50" height="50" relative="1" as="geometry">
            <mxPoint x="-1345" y="1175" as="sourcePoint" />
            <mxPoint x="-1327.9411764705885" y="945" as="targetPoint" />
          </mxGeometry>
        </mxCell>
        <mxCell id="XMGHCFaLuTb-ErzqM0Ou-50" value="Receipt" style="rounded=0;whiteSpace=wrap;html=1;fillColor=#d5e8d4;strokeColor=#82b366;fontSize=16;" parent="1" vertex="1">
          <mxGeometry x="-530" y="1460" width="120" height="60" as="geometry" />
        </mxCell>
        <mxCell id="XMGHCFaLuTb-ErzqM0Ou-56" value="" style="endArrow=none;html=1;rounded=0;fontSize=25;" parent="1" source="XMGHCFaLuTb-ErzqM0Ou-39" target="XMGHCFaLuTb-ErzqM0Ou-50" edge="1">
          <mxGeometry width="50" height="50" relative="1" as="geometry">
            <mxPoint x="-715" y="1310" as="sourcePoint" />
            <mxPoint x="-665" y="1260" as="targetPoint" />
          </mxGeometry>
        </mxCell>
        <mxCell id="XMGHCFaLuTb-ErzqM0Ou-58" value="" style="endArrow=none;html=1;rounded=0;fontSize=25;" parent="1" source="XMGHCFaLuTb-ErzqM0Ou-37" target="XMGHCFaLuTb-ErzqM0Ou-50" edge="1">
          <mxGeometry width="50" height="50" relative="1" as="geometry">
            <mxPoint x="-635" y="1320" as="sourcePoint" />
            <mxPoint x="-585" y="1270" as="targetPoint" />
          </mxGeometry>
        </mxCell>
        <mxCell id="XMGHCFaLuTb-ErzqM0Ou-61" value="&lt;br&gt;&lt;div&gt;Inventory_ID&lt;br&gt;&lt;br&gt;&lt;/div&gt;" style="ellipse;whiteSpace=wrap;html=1;fontStyle=4;fontSize=25;" parent="1" vertex="1">
          <mxGeometry x="-310" y="1050" width="145" height="70" as="geometry" />
        </mxCell>
        <mxCell id="XMGHCFaLuTb-ErzqM0Ou-62" value="&lt;br&gt;&lt;div&gt;Last_Updated&lt;br&gt;&lt;br&gt;&lt;/div&gt;" style="ellipse;whiteSpace=wrap;html=1;fontSize=25;" parent="1" vertex="1">
          <mxGeometry x="-75" y="770" width="175" height="90" as="geometry" />
        </mxCell>
        <mxCell id="XMGHCFaLuTb-ErzqM0Ou-63" value="&lt;br&gt;&lt;div&gt;Stock_Level&lt;br&gt;&lt;br&gt;&lt;/div&gt;" style="ellipse;whiteSpace=wrap;html=1;fontSize=25;" parent="1" vertex="1">
          <mxGeometry x="-35" y="960" width="185" height="70" as="geometry" />
        </mxCell>
        <mxCell id="XMGHCFaLuTb-ErzqM0Ou-64" value="&lt;br&gt;&lt;div&gt;Product_Name&lt;br&gt;&lt;br&gt;&lt;/div&gt;" style="ellipse;whiteSpace=wrap;html=1;fontSize=25;" parent="1" vertex="1">
          <mxGeometry x="-135" y="1050" width="195" height="60" as="geometry" />
        </mxCell>
        <mxCell id="XMGHCFaLuTb-ErzqM0Ou-65" value="Unit price" style="ellipse;whiteSpace=wrap;html=1;fontSize=25;" parent="1" vertex="1">
          <mxGeometry x="15" y="870" width="155" height="80" as="geometry" />
        </mxCell>
        <mxCell id="XMGHCFaLuTb-ErzqM0Ou-66" value="" style="endArrow=none;html=1;rounded=0;exitX=0.5;exitY=0;exitDx=0;exitDy=0;fontSize=25;" parent="1" source="XMGHCFaLuTb-ErzqM0Ou-61" edge="1">
          <mxGeometry width="50" height="50" relative="1" as="geometry">
            <mxPoint x="-245" y="1020" as="sourcePoint" />
            <mxPoint x="-195" y="970" as="targetPoint" />
          </mxGeometry>
        </mxCell>
        <mxCell id="XMGHCFaLuTb-ErzqM0Ou-67" value="" style="endArrow=none;html=1;rounded=0;exitX=0.356;exitY=-0.04;exitDx=0;exitDy=0;exitPerimeter=0;fontSize=25;" parent="1" source="XMGHCFaLuTb-ErzqM0Ou-64" edge="1">
          <mxGeometry width="50" height="50" relative="1" as="geometry">
            <mxPoint x="-185" y="1020" as="sourcePoint" />
            <mxPoint x="-135" y="970" as="targetPoint" />
          </mxGeometry>
        </mxCell>
        <mxCell id="XMGHCFaLuTb-ErzqM0Ou-68" value="" style="endArrow=none;html=1;rounded=0;fontSize=25;" parent="1" target="XMGHCFaLuTb-ErzqM0Ou-63" edge="1">
          <mxGeometry width="50" height="50" relative="1" as="geometry">
            <mxPoint x="-115" y="960" as="sourcePoint" />
            <mxPoint x="-65" y="910" as="targetPoint" />
          </mxGeometry>
        </mxCell>
        <mxCell id="XMGHCFaLuTb-ErzqM0Ou-69" value="" style="endArrow=none;html=1;rounded=0;entryX=0;entryY=0.5;entryDx=0;entryDy=0;fontSize=25;" parent="1" target="XMGHCFaLuTb-ErzqM0Ou-65" edge="1">
          <mxGeometry width="50" height="50" relative="1" as="geometry">
            <mxPoint x="-115" y="940" as="sourcePoint" />
            <mxPoint x="-65" y="890" as="targetPoint" />
          </mxGeometry>
        </mxCell>
        <mxCell id="XMGHCFaLuTb-ErzqM0Ou-70" value="" style="endArrow=none;html=1;rounded=0;entryX=0;entryY=1;entryDx=0;entryDy=0;fontSize=25;" parent="1" target="XMGHCFaLuTb-ErzqM0Ou-62" edge="1">
          <mxGeometry width="50" height="50" relative="1" as="geometry">
            <mxPoint x="-115" y="910" as="sourcePoint" />
            <mxPoint x="-65" y="860" as="targetPoint" />
          </mxGeometry>
        </mxCell>
        <mxCell id="XMGHCFaLuTb-ErzqM0Ou-83" value="FeedbackID" style="ellipse;whiteSpace=wrap;html=1;fontSize=25;" parent="1" vertex="1">
          <mxGeometry x="-1630" y="790" width="170" height="75.11" as="geometry" />
        </mxCell>
        <mxCell id="XMGHCFaLuTb-ErzqM0Ou-84" value="&#xa;Comments&#xa;&#xa;" style="ellipse;whiteSpace=wrap;html=1;fontSize=25;" parent="1" vertex="1">
          <mxGeometry x="-1550" y="875.11" width="175" height="84.89" as="geometry" />
        </mxCell>
        <mxCell id="XMGHCFaLuTb-ErzqM0Ou-86" value="&#xa;Rating&#xa;&#xa;" style="ellipse;whiteSpace=wrap;html=1;fontSize=25;" parent="1" vertex="1">
          <mxGeometry x="-1470" y="995.11" width="135" height="74.89" as="geometry" />
        </mxCell>
        <mxCell id="XMGHCFaLuTb-ErzqM0Ou-87" value="Worker" style="rounded=0;whiteSpace=wrap;html=1;fillColor=#d5e8d4;strokeColor=#82b366;fontSize=25;" parent="1" vertex="1">
          <mxGeometry x="35" y="1410" width="120" height="60" as="geometry" />
        </mxCell>
        <mxCell id="XMGHCFaLuTb-ErzqM0Ou-90" value="&lt;div&gt;&lt;br&gt;&lt;/div&gt;Address&lt;div&gt;&lt;br/&gt;&lt;/div&gt;" style="ellipse;whiteSpace=wrap;html=1;fontSize=25;" parent="1" vertex="1">
          <mxGeometry x="210" y="1370" width="165" height="70" as="geometry" />
        </mxCell>
        <mxCell id="XMGHCFaLuTb-ErzqM0Ou-91" value="&lt;br&gt;&lt;div&gt;Phone&lt;br&gt;&lt;br&gt;&lt;/div&gt;" style="ellipse;whiteSpace=wrap;html=1;fontSize=25;" parent="1" vertex="1">
          <mxGeometry x="-5" y="1690" width="110" height="60" as="geometry" />
        </mxCell>
        <mxCell id="XMGHCFaLuTb-ErzqM0Ou-92" value="&lt;br&gt;&lt;div&gt;Email&lt;br&gt;&lt;br&gt;&lt;/div&gt;" style="ellipse;whiteSpace=wrap;html=1;fontSize=25;" parent="1" vertex="1">
          <mxGeometry x="237.5" y="1630" width="110" height="60" as="geometry" />
        </mxCell>
        <mxCell id="XMGHCFaLuTb-ErzqM0Ou-93" value="&lt;br&gt;&lt;div&gt;Name&lt;br&gt;&lt;br&gt;&lt;/div&gt;" style="ellipse;whiteSpace=wrap;html=1;fontSize=25;" parent="1" vertex="1">
          <mxGeometry x="-25" y="1190" width="110" height="60" as="geometry" />
        </mxCell>
        <mxCell id="XMGHCFaLuTb-ErzqM0Ou-98" value="" style="endArrow=none;html=1;rounded=0;fontSize=25;" parent="1" source="XMGHCFaLuTb-ErzqM0Ou-90" target="XMGHCFaLuTb-ErzqM0Ou-87" edge="1">
          <mxGeometry width="50" height="50" relative="1" as="geometry">
            <mxPoint x="75" y="1620" as="sourcePoint" />
            <mxPoint x="125" y="1570" as="targetPoint" />
          </mxGeometry>
        </mxCell>
        <mxCell id="XMGHCFaLuTb-ErzqM0Ou-99" value="" style="endArrow=none;html=1;rounded=0;fontSize=16;" parent="1" source="XMGHCFaLuTb-ErzqM0Ou-91" target="XMGHCFaLuTb-ErzqM0Ou-87" edge="1">
          <mxGeometry width="50" height="50" relative="1" as="geometry">
            <mxPoint x="75" y="1590" as="sourcePoint" />
            <mxPoint x="125" y="1540" as="targetPoint" />
          </mxGeometry>
        </mxCell>
        <mxCell id="XMGHCFaLuTb-ErzqM0Ou-100" value="" style="endArrow=none;html=1;rounded=0;exitX=0.5;exitY=0;exitDx=0;exitDy=0;fontSize=25;" parent="1" source="XMGHCFaLuTb-ErzqM0Ou-92" target="XMGHCFaLuTb-ErzqM0Ou-87" edge="1">
          <mxGeometry width="50" height="50" relative="1" as="geometry">
            <mxPoint x="230" y="1700" as="sourcePoint" />
            <mxPoint x="105" y="1460" as="targetPoint" />
          </mxGeometry>
        </mxCell>
        <mxCell id="XMGHCFaLuTb-ErzqM0Ou-101" value="" style="endArrow=none;html=1;rounded=0;fontSize=16;" parent="1" source="WUSuxIz9srzla0MGMRCR-53" target="XMGHCFaLuTb-ErzqM0Ou-93" edge="1">
          <mxGeometry width="50" height="50" relative="1" as="geometry">
            <mxPoint x="105" y="1510" as="sourcePoint" />
            <mxPoint x="155" y="1460" as="targetPoint" />
          </mxGeometry>
        </mxCell>
        <mxCell id="XMGHCFaLuTb-ErzqM0Ou-105" value="" style="endArrow=none;html=1;rounded=0;fontSize=25;" parent="1" source="XMGHCFaLuTb-ErzqM0Ou-83" target="XMGHCFaLuTb-ErzqM0Ou-2" edge="1">
          <mxGeometry width="50" height="50" relative="1" as="geometry">
            <mxPoint x="-1592.5" y="835.1099999999999" as="sourcePoint" />
            <mxPoint x="-1542.5" y="785.11" as="targetPoint" />
          </mxGeometry>
        </mxCell>
        <mxCell id="XMGHCFaLuTb-ErzqM0Ou-108" value="" style="endArrow=none;html=1;rounded=0;fontSize=25;" parent="1" source="XMGHCFaLuTb-ErzqM0Ou-2" target="XMGHCFaLuTb-ErzqM0Ou-86" edge="1">
          <mxGeometry width="50" height="50" relative="1" as="geometry">
            <mxPoint x="-1402.5" y="905.1099999999999" as="sourcePoint" />
            <mxPoint x="-1352.5" y="855.1099999999999" as="targetPoint" />
          </mxGeometry>
        </mxCell>
        <mxCell id="XMGHCFaLuTb-ErzqM0Ou-109" value="" style="endArrow=none;html=1;rounded=0;fontSize=25;" parent="1" source="XMGHCFaLuTb-ErzqM0Ou-2" target="XMGHCFaLuTb-ErzqM0Ou-84" edge="1">
          <mxGeometry width="50" height="50" relative="1" as="geometry">
            <mxPoint x="-1372.5" y="985.1099999999999" as="sourcePoint" />
            <mxPoint x="-1322.5" y="935.1099999999999" as="targetPoint" />
          </mxGeometry>
        </mxCell>
        <mxCell id="mCTyANqZK8J9GMuDv6o_-1" value="&lt;font style=&quot;font-size: 25px;&quot;&gt;make&lt;/font&gt;" style="rhombus;whiteSpace=wrap;html=1;fillColor=#dae8fc;strokeColor=#6c8ebf;fontSize=16;" parent="1" vertex="1">
          <mxGeometry x="-1010" y="489.16999999999996" width="150" height="80" as="geometry" />
        </mxCell>
        <mxCell id="mCTyANqZK8J9GMuDv6o_-2" value="" style="endArrow=none;html=1;rounded=0;entryX=1;entryY=1;entryDx=0;entryDy=0;exitX=0.5;exitY=0;exitDx=0;exitDy=0;fontSize=16;" parent="1" source="mCTyANqZK8J9GMuDv6o_-1" target="XMGHCFaLuTb-ErzqM0Ou-1" edge="1">
          <mxGeometry width="50" height="50" relative="1" as="geometry">
            <mxPoint x="-1120" y="410" as="sourcePoint" />
            <mxPoint x="-1070" y="360" as="targetPoint" />
          </mxGeometry>
        </mxCell>
        <mxCell id="mCTyANqZK8J9GMuDv6o_-5" value="1" style="edgeLabel;html=1;align=center;verticalAlign=middle;resizable=0;points=[];fontSize=25;" parent="mCTyANqZK8J9GMuDv6o_-2" vertex="1" connectable="0">
          <mxGeometry x="0.8028" relative="1" as="geometry">
            <mxPoint y="-1" as="offset" />
          </mxGeometry>
        </mxCell>
        <mxCell id="mCTyANqZK8J9GMuDv6o_-4" value="" style="endArrow=none;html=1;rounded=0;entryX=0.5;entryY=1;entryDx=0;entryDy=0;fontSize=16;" parent="1" source="XMGHCFaLuTb-ErzqM0Ou-34" target="mCTyANqZK8J9GMuDv6o_-1" edge="1">
          <mxGeometry width="50" height="50" relative="1" as="geometry">
            <mxPoint x="-970" y="1100" as="sourcePoint" />
            <mxPoint x="-920" y="1050" as="targetPoint" />
          </mxGeometry>
        </mxCell>
        <mxCell id="mCTyANqZK8J9GMuDv6o_-6" value="M" style="edgeLabel;html=1;align=center;verticalAlign=middle;resizable=0;points=[];fontSize=25;" parent="mCTyANqZK8J9GMuDv6o_-4" vertex="1" connectable="0">
          <mxGeometry x="-0.774" y="-1" relative="1" as="geometry">
            <mxPoint as="offset" />
          </mxGeometry>
        </mxCell>
        <mxCell id="mCTyANqZK8J9GMuDv6o_-17" value="has" style="rhombus;whiteSpace=wrap;html=1;fillColor=#dae8fc;strokeColor=#6c8ebf;fontSize=25;" parent="1" vertex="1">
          <mxGeometry x="-830" y="870" width="80" height="80" as="geometry" />
        </mxCell>
        <mxCell id="mCTyANqZK8J9GMuDv6o_-18" value="" style="endArrow=none;html=1;rounded=0;exitX=1;exitY=0.5;exitDx=0;exitDy=0;fontSize=25;" parent="1" source="mCTyANqZK8J9GMuDv6o_-17" target="XMGHCFaLuTb-ErzqM0Ou-7" edge="1">
          <mxGeometry width="50" height="50" relative="1" as="geometry">
            <mxPoint x="-492.5" y="910" as="sourcePoint" />
            <mxPoint x="-502.5" y="800" as="targetPoint" />
          </mxGeometry>
        </mxCell>
        <mxCell id="mCTyANqZK8J9GMuDv6o_-21" value="1" style="edgeLabel;html=1;align=center;verticalAlign=middle;resizable=0;points=[];fontSize=25;" parent="mCTyANqZK8J9GMuDv6o_-18" vertex="1" connectable="0">
          <mxGeometry x="0.5016" y="-3" relative="1" as="geometry">
            <mxPoint x="1" y="1" as="offset" />
          </mxGeometry>
        </mxCell>
        <mxCell id="mCTyANqZK8J9GMuDv6o_-19" value="" style="endArrow=none;html=1;rounded=0;entryX=0;entryY=0.5;entryDx=0;entryDy=0;fontSize=16;" parent="1" source="XMGHCFaLuTb-ErzqM0Ou-34" target="mCTyANqZK8J9GMuDv6o_-17" edge="1">
          <mxGeometry width="50" height="50" relative="1" as="geometry">
            <mxPoint x="-1090" y="1060" as="sourcePoint" />
            <mxPoint x="-1040" y="1010" as="targetPoint" />
          </mxGeometry>
        </mxCell>
        <mxCell id="mCTyANqZK8J9GMuDv6o_-20" value="1" style="edgeLabel;html=1;align=center;verticalAlign=middle;resizable=0;points=[];fontSize=25;" parent="mCTyANqZK8J9GMuDv6o_-19" vertex="1" connectable="0">
          <mxGeometry x="-0.5182" y="2" relative="1" as="geometry">
            <mxPoint as="offset" />
          </mxGeometry>
        </mxCell>
        <mxCell id="mCTyANqZK8J9GMuDv6o_-22" value="has" style="rhombus;whiteSpace=wrap;html=1;fillColor=#dae8fc;strokeColor=#6c8ebf;fontSize=25;" parent="1" vertex="1">
          <mxGeometry x="-830" y="1130" width="80" height="80" as="geometry" />
        </mxCell>
        <mxCell id="mCTyANqZK8J9GMuDv6o_-23" value="" style="endArrow=none;html=1;rounded=0;entryX=0.5;entryY=0;entryDx=0;entryDy=0;fontSize=16;" parent="1" source="XMGHCFaLuTb-ErzqM0Ou-34" target="mCTyANqZK8J9GMuDv6o_-22" edge="1">
          <mxGeometry width="50" height="50" relative="1" as="geometry">
            <mxPoint x="-910" y="1200" as="sourcePoint" />
            <mxPoint x="-860" y="1150" as="targetPoint" />
          </mxGeometry>
        </mxCell>
        <mxCell id="mCTyANqZK8J9GMuDv6o_-25" value="1" style="edgeLabel;html=1;align=center;verticalAlign=middle;resizable=0;points=[];fontSize=25;" parent="mCTyANqZK8J9GMuDv6o_-23" vertex="1" connectable="0">
          <mxGeometry x="-0.4813" y="-5" relative="1" as="geometry">
            <mxPoint x="1" as="offset" />
          </mxGeometry>
        </mxCell>
        <mxCell id="mCTyANqZK8J9GMuDv6o_-27" value="do" style="rhombus;whiteSpace=wrap;html=1;fillColor=#dae8fc;strokeColor=#6c8ebf;fontSize=25;" parent="1" vertex="1">
          <mxGeometry x="-405" y="1030" width="80" height="80" as="geometry" />
        </mxCell>
        <mxCell id="mCTyANqZK8J9GMuDv6o_-29" value="" style="endArrow=none;html=1;rounded=0;exitX=0.5;exitY=0;exitDx=0;exitDy=0;fontSize=25;" parent="1" source="mCTyANqZK8J9GMuDv6o_-27" target="XMGHCFaLuTb-ErzqM0Ou-7" edge="1">
          <mxGeometry width="50" height="50" relative="1" as="geometry">
            <mxPoint x="-240" y="1220" as="sourcePoint" />
            <mxPoint x="-430" y="1030" as="targetPoint" />
          </mxGeometry>
        </mxCell>
        <mxCell id="mCTyANqZK8J9GMuDv6o_-35" value="M" style="edgeLabel;html=1;align=center;verticalAlign=middle;resizable=0;points=[];fontSize=25;" parent="mCTyANqZK8J9GMuDv6o_-29" vertex="1" connectable="0">
          <mxGeometry x="0.755" y="-3" relative="1" as="geometry">
            <mxPoint x="-1" as="offset" />
          </mxGeometry>
        </mxCell>
        <mxCell id="mCTyANqZK8J9GMuDv6o_-30" value="use" style="rhombus;whiteSpace=wrap;html=1;fillColor=#dae8fc;strokeColor=#6c8ebf;fontSize=25;" parent="1" vertex="1">
          <mxGeometry x="-390" y="810" width="80" height="80" as="geometry" />
        </mxCell>
        <mxCell id="mCTyANqZK8J9GMuDv6o_-31" value="" style="endArrow=none;html=1;rounded=0;entryX=1;entryY=1;entryDx=0;entryDy=0;exitX=0;exitY=0.5;exitDx=0;exitDy=0;fontSize=25;" parent="1" source="mCTyANqZK8J9GMuDv6o_-30" target="XMGHCFaLuTb-ErzqM0Ou-7" edge="1">
          <mxGeometry width="50" height="50" relative="1" as="geometry">
            <mxPoint x="-560" y="940" as="sourcePoint" />
            <mxPoint x="-510" y="890" as="targetPoint" />
          </mxGeometry>
        </mxCell>
        <mxCell id="mCTyANqZK8J9GMuDv6o_-33" value="M" style="edgeLabel;html=1;align=center;verticalAlign=middle;resizable=0;points=[];fontSize=25;" parent="mCTyANqZK8J9GMuDv6o_-31" vertex="1" connectable="0">
          <mxGeometry x="0.5269" y="-2" relative="1" as="geometry">
            <mxPoint as="offset" />
          </mxGeometry>
        </mxCell>
        <mxCell id="mCTyANqZK8J9GMuDv6o_-32" value="" style="endArrow=none;html=1;rounded=0;exitX=1;exitY=0.5;exitDx=0;exitDy=0;entryX=0;entryY=0;entryDx=0;entryDy=0;fontSize=25;" parent="1" source="mCTyANqZK8J9GMuDv6o_-30" target="XMGHCFaLuTb-ErzqM0Ou-4" edge="1">
          <mxGeometry width="50" height="50" relative="1" as="geometry">
            <mxPoint x="-270" y="910" as="sourcePoint" />
            <mxPoint x="-220" y="860" as="targetPoint" />
          </mxGeometry>
        </mxCell>
        <mxCell id="mCTyANqZK8J9GMuDv6o_-34" value="M" style="edgeLabel;html=1;align=center;verticalAlign=middle;resizable=0;points=[];fontSize=25;" parent="mCTyANqZK8J9GMuDv6o_-32" vertex="1" connectable="0">
          <mxGeometry x="0.1841" y="4" relative="1" as="geometry">
            <mxPoint as="offset" />
          </mxGeometry>
        </mxCell>
        <mxCell id="XMGHCFaLuTb-ErzqM0Ou-16" value="&#xa;Name&#xa;&#xa;" style="ellipse;whiteSpace=wrap;html=1;fontSize=25;" parent="1" vertex="1">
          <mxGeometry x="-1235" y="140" width="110" height="60" as="geometry" />
        </mxCell>
        <mxCell id="QH4C9bZdyQ2NckHa1oD1-29" value="Title" style="ellipse;whiteSpace=wrap;html=1;fontSize=25;" parent="1" vertex="1">
          <mxGeometry x="-1110" y="40" width="160" height="60" as="geometry" />
        </mxCell>
        <mxCell id="QH4C9bZdyQ2NckHa1oD1-30" value="Last name" style="ellipse;whiteSpace=wrap;html=1;fontSize=25;" parent="1" vertex="1">
          <mxGeometry x="-1410" y="20" width="150" height="60" as="geometry" />
        </mxCell>
        <mxCell id="QH4C9bZdyQ2NckHa1oD1-31" value="First name" style="ellipse;whiteSpace=wrap;html=1;fontSize=25;" parent="1" vertex="1">
          <mxGeometry x="-1260" width="150" height="70" as="geometry" />
        </mxCell>
        <mxCell id="QH4C9bZdyQ2NckHa1oD1-32" value="" style="endArrow=none;html=1;rounded=0;fontSize=25;" parent="1" source="XMGHCFaLuTb-ErzqM0Ou-16" target="QH4C9bZdyQ2NckHa1oD1-29" edge="1">
          <mxGeometry width="50" height="50" relative="1" as="geometry">
            <mxPoint x="-920" y="270" as="sourcePoint" />
            <mxPoint x="-870" y="220" as="targetPoint" />
          </mxGeometry>
        </mxCell>
        <mxCell id="QH4C9bZdyQ2NckHa1oD1-34" value="" style="endArrow=none;html=1;rounded=0;fontSize=25;" parent="1" source="XMGHCFaLuTb-ErzqM0Ou-16" target="QH4C9bZdyQ2NckHa1oD1-31" edge="1">
          <mxGeometry width="50" height="50" relative="1" as="geometry">
            <mxPoint x="-920" y="270" as="sourcePoint" />
            <mxPoint x="-870" y="220" as="targetPoint" />
          </mxGeometry>
        </mxCell>
        <mxCell id="QH4C9bZdyQ2NckHa1oD1-35" value="" style="endArrow=none;html=1;rounded=0;fontSize=25;" parent="1" source="XMGHCFaLuTb-ErzqM0Ou-16" target="QH4C9bZdyQ2NckHa1oD1-30" edge="1">
          <mxGeometry width="50" height="50" relative="1" as="geometry">
            <mxPoint x="-1171" y="150" as="sourcePoint" />
            <mxPoint x="-1174" y="100" as="targetPoint" />
          </mxGeometry>
        </mxCell>
        <mxCell id="QH4C9bZdyQ2NckHa1oD1-48" value="Payment" style="rounded=0;whiteSpace=wrap;html=1;fillColor=#d5e8d4;strokeColor=#82b366;fontSize=25;" parent="1" vertex="1">
          <mxGeometry x="-1090" y="1270" width="180" height="70" as="geometry" />
        </mxCell>
        <mxCell id="QH4C9bZdyQ2NckHa1oD1-49" value="PaymentID" style="ellipse;whiteSpace=wrap;html=1;fontStyle=4;fontSize=25;" parent="1" vertex="1">
          <mxGeometry x="-1370" y="1330" width="170" height="90" as="geometry" />
        </mxCell>
        <mxCell id="QH4C9bZdyQ2NckHa1oD1-50" value="Amount" style="ellipse;whiteSpace=wrap;html=1;fontSize=25;" parent="1" vertex="1">
          <mxGeometry x="-1300" y="1450" width="180" height="75" as="geometry" />
        </mxCell>
        <mxCell id="QH4C9bZdyQ2NckHa1oD1-51" value="Payment date" style="ellipse;whiteSpace=wrap;html=1;fontSize=25;" parent="1" vertex="1">
          <mxGeometry x="-1000" y="1460" width="190" height="90" as="geometry" />
        </mxCell>
        <mxCell id="QH4C9bZdyQ2NckHa1oD1-53" value="" style="endArrow=none;html=1;rounded=0;fontSize=25;" parent="1" source="QH4C9bZdyQ2NckHa1oD1-49" target="QH4C9bZdyQ2NckHa1oD1-48" edge="1">
          <mxGeometry width="50" height="50" relative="1" as="geometry">
            <mxPoint x="-840" y="1440" as="sourcePoint" />
            <mxPoint x="-790" y="1390" as="targetPoint" />
          </mxGeometry>
        </mxCell>
        <mxCell id="QH4C9bZdyQ2NckHa1oD1-54" value="" style="endArrow=none;html=1;rounded=0;fontSize=25;" parent="1" source="QH4C9bZdyQ2NckHa1oD1-50" target="QH4C9bZdyQ2NckHa1oD1-48" edge="1">
          <mxGeometry width="50" height="50" relative="1" as="geometry">
            <mxPoint x="-1298" y="1510" as="sourcePoint" />
            <mxPoint x="-1150" y="1453" as="targetPoint" />
          </mxGeometry>
        </mxCell>
        <mxCell id="QH4C9bZdyQ2NckHa1oD1-55" value="" style="endArrow=none;html=1;rounded=0;fontSize=25;" parent="1" source="QH4C9bZdyQ2NckHa1oD1-51" target="QH4C9bZdyQ2NckHa1oD1-48" edge="1">
          <mxGeometry width="50" height="50" relative="1" as="geometry">
            <mxPoint x="-1288" y="1520" as="sourcePoint" />
            <mxPoint x="-1140" y="1463" as="targetPoint" />
          </mxGeometry>
        </mxCell>
        <mxCell id="QH4C9bZdyQ2NckHa1oD1-56" value="" style="endArrow=none;html=1;rounded=0;entryX=0.5;entryY=1;entryDx=0;entryDy=0;fontSize=16;" parent="1" source="QH4C9bZdyQ2NckHa1oD1-48" target="mCTyANqZK8J9GMuDv6o_-22" edge="1">
          <mxGeometry width="50" height="50" relative="1" as="geometry">
            <mxPoint x="-830" y="1360" as="sourcePoint" />
            <mxPoint x="-780" y="1310" as="targetPoint" />
          </mxGeometry>
        </mxCell>
        <mxCell id="QH4C9bZdyQ2NckHa1oD1-68" value="1" style="edgeLabel;html=1;align=center;verticalAlign=middle;resizable=0;points=[];fontSize=25;" parent="QH4C9bZdyQ2NckHa1oD1-56" vertex="1" connectable="0">
          <mxGeometry x="-0.6377" y="-2" relative="1" as="geometry">
            <mxPoint as="offset" />
          </mxGeometry>
        </mxCell>
        <mxCell id="KWmNkmGv4BMrLDbc9gnQ-4" style="edgeStyle=orthogonalEdgeStyle;rounded=0;orthogonalLoop=1;jettySize=auto;html=1;endArrow=none;endFill=0;fontSize=16;" parent="1" source="QH4C9bZdyQ2NckHa1oD1-57" target="XMGHCFaLuTb-ErzqM0Ou-2" edge="1">
          <mxGeometry relative="1" as="geometry" />
        </mxCell>
        <mxCell id="QH4C9bZdyQ2NckHa1oD1-57" value="&lt;font style=&quot;font-size: 25px;&quot;&gt;make&lt;/font&gt;" style="rhombus;whiteSpace=wrap;html=1;fillColor=#dae8fc;strokeColor=#6c8ebf;fontSize=16;" parent="1" vertex="1">
          <mxGeometry x="-1282.5" y="514.17" width="150" height="80" as="geometry" />
        </mxCell>
        <mxCell id="QH4C9bZdyQ2NckHa1oD1-58" value="" style="endArrow=none;html=1;rounded=0;exitX=0.5;exitY=0;exitDx=0;exitDy=0;fontSize=16;" parent="1" source="QH4C9bZdyQ2NckHa1oD1-57" target="XMGHCFaLuTb-ErzqM0Ou-1" edge="1">
          <mxGeometry width="50" height="50" relative="1" as="geometry">
            <mxPoint x="-880" y="840" as="sourcePoint" />
            <mxPoint x="-830" y="790" as="targetPoint" />
          </mxGeometry>
        </mxCell>
        <mxCell id="QH4C9bZdyQ2NckHa1oD1-66" value="1" style="edgeLabel;html=1;align=center;verticalAlign=middle;resizable=0;points=[];fontSize=25;" parent="QH4C9bZdyQ2NckHa1oD1-58" vertex="1" connectable="0">
          <mxGeometry x="0.8702" y="-1" relative="1" as="geometry">
            <mxPoint as="offset" />
          </mxGeometry>
        </mxCell>
        <mxCell id="QH4C9bZdyQ2NckHa1oD1-63" value="generates" style="rhombus;whiteSpace=wrap;html=1;fillColor=#dae8fc;strokeColor=#6c8ebf;fontSize=25;" parent="1" vertex="1">
          <mxGeometry x="-780" y="1410" width="117.5" height="110" as="geometry" />
        </mxCell>
        <mxCell id="QH4C9bZdyQ2NckHa1oD1-64" value="" style="endArrow=none;html=1;rounded=0;entryX=0;entryY=0.5;entryDx=0;entryDy=0;fontSize=25;" parent="1" source="QH4C9bZdyQ2NckHa1oD1-48" target="QH4C9bZdyQ2NckHa1oD1-63" edge="1">
          <mxGeometry width="50" height="50" relative="1" as="geometry">
            <mxPoint x="-740" y="1240" as="sourcePoint" />
            <mxPoint x="-690" y="1190" as="targetPoint" />
          </mxGeometry>
        </mxCell>
        <mxCell id="WUSuxIz9srzla0MGMRCR-23" value="1" style="edgeLabel;html=1;align=center;verticalAlign=middle;resizable=0;points=[];fontSize=25;" parent="QH4C9bZdyQ2NckHa1oD1-64" vertex="1" connectable="0">
          <mxGeometry x="-0.7021" y="-2" relative="1" as="geometry">
            <mxPoint as="offset" />
          </mxGeometry>
        </mxCell>
        <mxCell id="QH4C9bZdyQ2NckHa1oD1-65" value="" style="endArrow=none;html=1;rounded=0;exitX=1;exitY=0.5;exitDx=0;exitDy=0;shape=link;fontSize=16;" parent="1" source="QH4C9bZdyQ2NckHa1oD1-63" target="XMGHCFaLuTb-ErzqM0Ou-50" edge="1">
          <mxGeometry width="50" height="50" relative="1" as="geometry">
            <mxPoint x="-740" y="1240" as="sourcePoint" />
            <mxPoint x="-690" y="1190" as="targetPoint" />
          </mxGeometry>
        </mxCell>
        <mxCell id="QH4C9bZdyQ2NckHa1oD1-69" value="1" style="edgeLabel;html=1;align=center;verticalAlign=middle;resizable=0;points=[];fontSize=16;" parent="QH4C9bZdyQ2NckHa1oD1-65" vertex="1" connectable="0">
          <mxGeometry x="0.7244" y="-3" relative="1" as="geometry">
            <mxPoint as="offset" />
          </mxGeometry>
        </mxCell>
        <mxCell id="cPYR2mUjyV-IgGl8xkyW-5" value="Image Url" style="ellipse;whiteSpace=wrap;html=1;fontSize=25;" parent="1" vertex="1">
          <mxGeometry x="-185" y="609.17" width="165" height="90.83" as="geometry" />
        </mxCell>
        <mxCell id="cPYR2mUjyV-IgGl8xkyW-9" value="" style="endArrow=none;html=1;rounded=0;entryX=0.242;entryY=0.142;entryDx=0;entryDy=0;entryPerimeter=0;fontSize=25;" parent="1" target="cPYR2mUjyV-IgGl8xkyW-12" edge="1">
          <mxGeometry width="50" height="50" relative="1" as="geometry">
            <mxPoint x="-145.5779460169856" y="538.5434657298918" as="sourcePoint" />
            <mxPoint x="-410" y="740" as="targetPoint" />
          </mxGeometry>
        </mxCell>
        <mxCell id="WUSuxIz9srzla0MGMRCR-1" value="" style="endArrow=none;html=1;rounded=0;fontSize=25;" parent="1" source="XMGHCFaLuTb-ErzqM0Ou-7" edge="1">
          <mxGeometry width="50" height="50" relative="1" as="geometry">
            <mxPoint x="-330" y="610" as="sourcePoint" />
            <mxPoint x="-330" y="580" as="targetPoint" />
          </mxGeometry>
        </mxCell>
        <mxCell id="WUSuxIz9srzla0MGMRCR-4" value="" style="endArrow=none;html=1;rounded=0;fontSize=25;" parent="1" edge="1">
          <mxGeometry width="50" height="50" relative="1" as="geometry">
            <mxPoint x="-330" y="580" as="sourcePoint" />
            <mxPoint x="-333.88907935963834" y="439.9931430530221" as="targetPoint" />
          </mxGeometry>
        </mxCell>
        <mxCell id="WUSuxIz9srzla0MGMRCR-5" value="" style="endArrow=none;html=1;rounded=0;fontSize=25;" parent="1" edge="1">
          <mxGeometry width="50" height="50" relative="1" as="geometry">
            <mxPoint x="-330" y="580" as="sourcePoint" />
            <mxPoint x="-186.0994990022541" y="520.1338970265658" as="targetPoint" />
          </mxGeometry>
        </mxCell>
        <mxCell id="WUSuxIz9srzla0MGMRCR-6" value="" style="endArrow=none;html=1;rounded=0;fontSize=25;" parent="1" edge="1">
          <mxGeometry width="50" height="50" relative="1" as="geometry">
            <mxPoint x="-330" y="530" as="sourcePoint" />
            <mxPoint x="-280" y="560" as="targetPoint" />
          </mxGeometry>
        </mxCell>
        <mxCell id="WUSuxIz9srzla0MGMRCR-8" value="ISA" style="text;html=1;align=center;verticalAlign=middle;whiteSpace=wrap;rounded=0;rotation=30;fontSize=25;" parent="1" vertex="1">
          <mxGeometry x="-340" y="539.17" width="60" height="30" as="geometry" />
        </mxCell>
        <mxCell id="WUSuxIz9srzla0MGMRCR-12" value="Wheel Diameter" style="ellipse;whiteSpace=wrap;html=1;fontSize=25;" parent="1" vertex="1">
          <mxGeometry x="-60" y="390" width="200" height="120" as="geometry" />
        </mxCell>
        <mxCell id="WUSuxIz9srzla0MGMRCR-13" value="Tire Width" style="ellipse;whiteSpace=wrap;html=1;fontSize=25;" parent="1" vertex="1">
          <mxGeometry x="-210" y="330" width="160" height="100" as="geometry" />
        </mxCell>
        <mxCell id="WUSuxIz9srzla0MGMRCR-15" value="" style="endArrow=none;html=1;rounded=0;fontSize=25;" parent="1" source="KWmNkmGv4BMrLDbc9gnQ-3" target="WUSuxIz9srzla0MGMRCR-13" edge="1">
          <mxGeometry width="50" height="50" relative="1" as="geometry">
            <mxPoint x="-142.7396706930872" y="459.50418769792736" as="sourcePoint" />
            <mxPoint x="-10" y="420" as="targetPoint" />
          </mxGeometry>
        </mxCell>
        <mxCell id="WUSuxIz9srzla0MGMRCR-16" value="" style="endArrow=none;html=1;rounded=0;fontSize=25;" parent="1" source="KWmNkmGv4BMrLDbc9gnQ-3" target="WUSuxIz9srzla0MGMRCR-12" edge="1">
          <mxGeometry width="50" height="50" relative="1" as="geometry">
            <mxPoint x="-76.11644070841976" y="491.48953574457664" as="sourcePoint" />
            <mxPoint x="50" y="460" as="targetPoint" />
          </mxGeometry>
        </mxCell>
        <mxCell id="WUSuxIz9srzla0MGMRCR-18" value="tyre pttern" style="ellipse;whiteSpace=wrap;html=1;fontSize=25;" parent="1" vertex="1">
          <mxGeometry x="-20" y="542.14" width="195" height="90" as="geometry" />
        </mxCell>
        <mxCell id="WUSuxIz9srzla0MGMRCR-19" value="" style="endArrow=none;html=1;rounded=0;fontSize=25;" parent="1" source="WUSuxIz9srzla0MGMRCR-18" edge="1">
          <mxGeometry width="50" height="50" relative="1" as="geometry">
            <mxPoint x="-70" y="630" as="sourcePoint" />
            <mxPoint x="-92.57359312880726" y="527.4542712474613" as="targetPoint" />
          </mxGeometry>
        </mxCell>
        <mxCell id="WUSuxIz9srzla0MGMRCR-22" value="Receipt" style="rounded=0;whiteSpace=wrap;html=1;fillColor=#d5e8d4;strokeColor=#82b366;fontSize=25;" parent="1" vertex="1">
          <mxGeometry x="-520" y="1470" width="100" height="40" as="geometry" />
        </mxCell>
        <mxCell id="WUSuxIz9srzla0MGMRCR-24" value="Size Code" style="ellipse;whiteSpace=wrap;html=1;fontSize=25;" parent="1" vertex="1">
          <mxGeometry x="-582.5" y="950" width="140" height="80" as="geometry" />
        </mxCell>
        <mxCell id="WUSuxIz9srzla0MGMRCR-25" value="&lt;span style=&quot;white-space-collapse: preserve; font-size: 25px;&quot;&gt;Preferred Completion Date&lt;/span&gt;" style="ellipse;whiteSpace=wrap;html=1;fontSize=25;" parent="1" vertex="1">
          <mxGeometry x="-890" y="730" width="170" height="109.79" as="geometry" />
        </mxCell>
        <mxCell id="WUSuxIz9srzla0MGMRCR-27" value="&lt;span style=&quot;font-size: 25px;&quot;&gt;&lt;/span&gt;&lt;span style=&quot;font-size: 25px;&quot;&gt;&lt;/span&gt;&lt;span style=&quot;white-space-collapse: preserve; font-size: 25px;&quot;&gt;tyre brand name&lt;/span&gt;" style="ellipse;whiteSpace=wrap;html=1;fontSize=25;" parent="1" vertex="1">
          <mxGeometry x="-770" y="920" width="170" height="90" as="geometry" />
        </mxCell>
        <mxCell id="WUSuxIz9srzla0MGMRCR-28" value="&lt;span style=&quot;font-size: 25px;&quot;&gt;&lt;/span&gt;&lt;span style=&quot;font-size: 25px;&quot;&gt;&lt;/span&gt;&lt;span style=&quot;white-space-collapse: preserve; font-size: 25px;&quot;&gt;Number of Patches Applied&lt;/span&gt;" style="ellipse;whiteSpace=wrap;html=1;fontSize=25;" parent="1" vertex="1">
          <mxGeometry x="-630" y="260" width="235" height="90" as="geometry" />
        </mxCell>
        <mxCell id="WUSuxIz9srzla0MGMRCR-29" value="&lt;span style=&quot;font-size: 25px;&quot;&gt;&lt;/span&gt;&lt;span style=&quot;font-size: 25px;&quot;&gt;&lt;/span&gt;&lt;span style=&quot;white-space-collapse: preserve; font-size: 25px;&quot;&gt;Puncture Size&lt;/span&gt;" style="ellipse;whiteSpace=wrap;html=1;fontSize=25;" parent="1" vertex="1">
          <mxGeometry x="-630" y="390" width="190" height="80" as="geometry" />
        </mxCell>
        <mxCell id="WUSuxIz9srzla0MGMRCR-33" value="" style="endArrow=none;html=1;rounded=0;fontSize=25;" parent="1" target="WUSuxIz9srzla0MGMRCR-29" edge="1">
          <mxGeometry width="50" height="50" relative="1" as="geometry">
            <mxPoint x="-394.1836354299285" y="406.57595949221445" as="sourcePoint" />
            <mxPoint x="-310" y="290" as="targetPoint" />
          </mxGeometry>
        </mxCell>
        <mxCell id="WUSuxIz9srzla0MGMRCR-34" value="" style="endArrow=none;html=1;rounded=0;fontSize=25;" parent="1" source="WUSuxIz9srzla0MGMRCR-28" edge="1">
          <mxGeometry width="50" height="50" relative="1" as="geometry">
            <mxPoint x="-420" y="360" as="sourcePoint" />
            <mxPoint x="-376.51432179416497" y="371.1204717953635" as="targetPoint" />
          </mxGeometry>
        </mxCell>
        <mxCell id="WUSuxIz9srzla0MGMRCR-35" value="" style="endArrow=none;html=1;rounded=0;fontSize=25;" parent="1" source="XMGHCFaLuTb-ErzqM0Ou-7" target="WUSuxIz9srzla0MGMRCR-27" edge="1">
          <mxGeometry width="50" height="50" relative="1" as="geometry">
            <mxPoint x="-360" y="360" as="sourcePoint" />
            <mxPoint x="-310" y="310" as="targetPoint" />
          </mxGeometry>
        </mxCell>
        <mxCell id="WUSuxIz9srzla0MGMRCR-37" value="" style="endArrow=none;html=1;rounded=0;fontSize=25;" parent="1" source="XMGHCFaLuTb-ErzqM0Ou-7" target="WUSuxIz9srzla0MGMRCR-25" edge="1">
          <mxGeometry width="50" height="50" relative="1" as="geometry">
            <mxPoint x="-793.8470437557467" y="930.000882953829" as="sourcePoint" />
            <mxPoint x="-685" y="889.79" as="targetPoint" />
          </mxGeometry>
        </mxCell>
        <mxCell id="WUSuxIz9srzla0MGMRCR-38" value="" style="endArrow=none;html=1;rounded=0;fontSize=25;" parent="1" source="XMGHCFaLuTb-ErzqM0Ou-7" target="WUSuxIz9srzla0MGMRCR-24" edge="1">
          <mxGeometry width="50" height="50" relative="1" as="geometry">
            <mxPoint x="-480.00262887277506" y="765.4267387494573" as="sourcePoint" />
            <mxPoint x="-371.35" y="789.17" as="targetPoint" />
          </mxGeometry>
        </mxCell>
        <mxCell id="WUSuxIz9srzla0MGMRCR-43" value="" style="ellipse;whiteSpace=wrap;html=1;fontSize=25;" parent="1" vertex="1">
          <mxGeometry x="-355" y="200" width="185" height="119.17" as="geometry" />
        </mxCell>
        <mxCell id="WUSuxIz9srzla0MGMRCR-44" value="Tyre photo URL" style="ellipse;whiteSpace=wrap;html=1;fontSize=25;" parent="1" vertex="1">
          <mxGeometry x="-342.5" y="207.5" width="160" height="104.17" as="geometry" />
        </mxCell>
        <mxCell id="WUSuxIz9srzla0MGMRCR-45" value="" style="endArrow=none;html=1;rounded=0;entryX=0;entryY=1;entryDx=0;entryDy=0;fontSize=25;" parent="1" source="KWmNkmGv4BMrLDbc9gnQ-2" target="WUSuxIz9srzla0MGMRCR-43" edge="1">
          <mxGeometry width="50" height="50" relative="1" as="geometry">
            <mxPoint x="-335.72721930632906" y="360.00293815190776" as="sourcePoint" />
            <mxPoint x="-170" y="280" as="targetPoint" />
          </mxGeometry>
        </mxCell>
        <mxCell id="WUSuxIz9srzla0MGMRCR-50" value="" style="endArrow=none;html=1;rounded=0;exitX=0.5;exitY=1;exitDx=0;exitDy=0;fontSize=16;" parent="1" source="mCTyANqZK8J9GMuDv6o_-27" target="WUSuxIz9srzla0MGMRCR-53" edge="1">
          <mxGeometry width="50" height="50" relative="1" as="geometry">
            <mxPoint x="-110" y="1360" as="sourcePoint" />
            <mxPoint x="-190" y="1390" as="targetPoint" />
          </mxGeometry>
        </mxCell>
        <mxCell id="WUSuxIz9srzla0MGMRCR-61" value="1" style="edgeLabel;html=1;align=center;verticalAlign=middle;resizable=0;points=[];fontSize=25;" parent="WUSuxIz9srzla0MGMRCR-50" vertex="1" connectable="0">
          <mxGeometry x="0.6322" relative="1" as="geometry">
            <mxPoint as="offset" />
          </mxGeometry>
        </mxCell>
        <mxCell id="WUSuxIz9srzla0MGMRCR-51" value="" style="endArrow=none;html=1;rounded=0;fontSize=16;" parent="1" target="XMGHCFaLuTb-ErzqM0Ou-87" edge="1">
          <mxGeometry width="50" height="50" relative="1" as="geometry">
            <mxPoint x="-90" y="1380" as="sourcePoint" />
            <mxPoint x="-30" y="1370" as="targetPoint" />
          </mxGeometry>
        </mxCell>
        <mxCell id="WUSuxIz9srzla0MGMRCR-53" value="Employee" style="rounded=0;whiteSpace=wrap;html=1;fillColor=#d5e8d4;strokeColor=#82b366;fontSize=16;" parent="1" vertex="1">
          <mxGeometry x="-230" y="1210" width="120" height="60" as="geometry" />
        </mxCell>
        <mxCell id="WUSuxIz9srzla0MGMRCR-56" value="" style="endArrow=none;html=1;rounded=0;fontSize=16;" parent="1" target="WUSuxIz9srzla0MGMRCR-53" edge="1">
          <mxGeometry width="50" height="50" relative="1" as="geometry">
            <mxPoint x="-90" y="1380" as="sourcePoint" />
            <mxPoint x="-130" y="1270" as="targetPoint" />
          </mxGeometry>
        </mxCell>
        <mxCell id="WUSuxIz9srzla0MGMRCR-57" value="" style="endArrow=none;html=1;rounded=0;fontSize=16;" parent="1" source="WUSuxIz9srzla0MGMRCR-58" edge="1">
          <mxGeometry width="50" height="50" relative="1" as="geometry">
            <mxPoint x="-210" y="1490" as="sourcePoint" />
            <mxPoint x="-90" y="1380" as="targetPoint" />
          </mxGeometry>
        </mxCell>
        <mxCell id="WUSuxIz9srzla0MGMRCR-58" value="Owner" style="rounded=0;whiteSpace=wrap;html=1;fillColor=#d5e8d4;strokeColor=#82b366;fontSize=25;" parent="1" vertex="1">
          <mxGeometry x="-290" y="1520" width="120" height="60" as="geometry" />
        </mxCell>
        <mxCell id="WUSuxIz9srzla0MGMRCR-59" value="" style="endArrow=none;html=1;rounded=0;fontSize=16;" parent="1" edge="1">
          <mxGeometry width="50" height="50" relative="1" as="geometry">
            <mxPoint x="-120" y="1420" as="sourcePoint" />
            <mxPoint x="-30" y="1400" as="targetPoint" />
          </mxGeometry>
        </mxCell>
        <mxCell id="WUSuxIz9srzla0MGMRCR-60" value="ISA" style="text;html=1;align=center;verticalAlign=middle;whiteSpace=wrap;rounded=0;fontSize=16;" parent="1" vertex="1">
          <mxGeometry x="-115" y="1385" width="60" height="30" as="geometry" />
        </mxCell>
        <mxCell id="WUSuxIz9srzla0MGMRCR-63" value="Address_line_1" style="ellipse;whiteSpace=wrap;html=1;fontSize=25;" parent="1" vertex="1">
          <mxGeometry x="-1690" y="310" width="200" height="90" as="geometry" />
        </mxCell>
        <mxCell id="WUSuxIz9srzla0MGMRCR-64" value="House_no" style="ellipse;whiteSpace=wrap;html=1;fontSize=25;" parent="1" vertex="1">
          <mxGeometry x="-1660" y="200" width="150" height="80" as="geometry" />
        </mxCell>
        <mxCell id="WUSuxIz9srzla0MGMRCR-65" value="Address_line_2" style="ellipse;whiteSpace=wrap;html=1;fontSize=25;" parent="1" vertex="1">
          <mxGeometry x="-1630" y="430" width="210" height="90" as="geometry" />
        </mxCell>
        <mxCell id="WUSuxIz9srzla0MGMRCR-66" value="" style="endArrow=none;html=1;rounded=0;fontSize=25;" parent="1" source="WUSuxIz9srzla0MGMRCR-65" target="XMGHCFaLuTb-ErzqM0Ou-13" edge="1">
          <mxGeometry width="50" height="50" relative="1" as="geometry">
            <mxPoint x="-1510" y="400" as="sourcePoint" />
            <mxPoint x="-1460" y="350" as="targetPoint" />
          </mxGeometry>
        </mxCell>
        <mxCell id="WUSuxIz9srzla0MGMRCR-67" value="" style="endArrow=none;html=1;rounded=0;fontSize=25;" parent="1" source="WUSuxIz9srzla0MGMRCR-63" target="XMGHCFaLuTb-ErzqM0Ou-13" edge="1">
          <mxGeometry width="50" height="50" relative="1" as="geometry">
            <mxPoint x="-1520" y="360" as="sourcePoint" />
            <mxPoint x="-1470" y="310" as="targetPoint" />
          </mxGeometry>
        </mxCell>
        <mxCell id="WUSuxIz9srzla0MGMRCR-68" value="" style="endArrow=none;html=1;rounded=0;fontSize=25;" parent="1" source="WUSuxIz9srzla0MGMRCR-64" target="XMGHCFaLuTb-ErzqM0Ou-13" edge="1">
          <mxGeometry width="50" height="50" relative="1" as="geometry">
            <mxPoint x="-1520" y="320" as="sourcePoint" />
            <mxPoint x="-1470" y="270" as="targetPoint" />
          </mxGeometry>
        </mxCell>
        <mxCell id="WUSuxIz9srzla0MGMRCR-69" value="Address_line_1" style="ellipse;whiteSpace=wrap;html=1;fontSize=25;" parent="1" vertex="1">
          <mxGeometry x="400" y="1360" width="220" height="70" as="geometry" />
        </mxCell>
        <mxCell id="WUSuxIz9srzla0MGMRCR-70" value="House_no" style="ellipse;whiteSpace=wrap;html=1;fontSize=25;" parent="1" vertex="1">
          <mxGeometry x="410" y="1280" width="160" height="70" as="geometry" />
        </mxCell>
        <mxCell id="WUSuxIz9srzla0MGMRCR-71" value="Address_line_2" style="ellipse;whiteSpace=wrap;html=1;fontSize=25;" parent="1" vertex="1">
          <mxGeometry x="400" y="1445" width="180" height="75" as="geometry" />
        </mxCell>
        <mxCell id="WUSuxIz9srzla0MGMRCR-72" value="" style="endArrow=none;html=1;rounded=0;fontSize=25;" parent="1" source="XMGHCFaLuTb-ErzqM0Ou-90" target="WUSuxIz9srzla0MGMRCR-70" edge="1">
          <mxGeometry width="50" height="50" relative="1" as="geometry">
            <mxPoint x="290" y="1310" as="sourcePoint" />
            <mxPoint x="340" y="1260" as="targetPoint" />
          </mxGeometry>
        </mxCell>
        <mxCell id="WUSuxIz9srzla0MGMRCR-73" value="" style="endArrow=none;html=1;rounded=0;fontSize=25;" parent="1" source="XMGHCFaLuTb-ErzqM0Ou-90" target="WUSuxIz9srzla0MGMRCR-71" edge="1">
          <mxGeometry width="50" height="50" relative="1" as="geometry">
            <mxPoint x="350" y="1340" as="sourcePoint" />
            <mxPoint x="400" y="1290" as="targetPoint" />
          </mxGeometry>
        </mxCell>
        <mxCell id="WUSuxIz9srzla0MGMRCR-74" value="" style="endArrow=none;html=1;rounded=0;fontSize=25;" parent="1" source="XMGHCFaLuTb-ErzqM0Ou-90" target="WUSuxIz9srzla0MGMRCR-69" edge="1">
          <mxGeometry width="50" height="50" relative="1" as="geometry">
            <mxPoint x="330" y="1340" as="sourcePoint" />
            <mxPoint x="380" y="1290" as="targetPoint" />
          </mxGeometry>
        </mxCell>
        <mxCell id="WUSuxIz9srzla0MGMRCR-75" value="&lt;span style=&quot;white-space-collapse: preserve; text-align: left; font-size: 25px;&quot;&gt;Tyre Structure&lt;/span&gt;" style="ellipse;whiteSpace=wrap;html=1;fontSize=25;" parent="1" vertex="1">
          <mxGeometry x="-885" y="630" width="190" height="70" as="geometry" />
        </mxCell>
        <mxCell id="WUSuxIz9srzla0MGMRCR-76" value="" style="endArrow=none;html=1;rounded=0;fontSize=25;" parent="1" source="XMGHCFaLuTb-ErzqM0Ou-7" target="WUSuxIz9srzla0MGMRCR-75" edge="1">
          <mxGeometry width="50" height="50" relative="1" as="geometry">
            <mxPoint x="-346" y="850" as="sourcePoint" />
            <mxPoint x="-290" y="780" as="targetPoint" />
          </mxGeometry>
        </mxCell>
        <mxCell id="WUSuxIz9srzla0MGMRCR-77" value="Title" style="ellipse;whiteSpace=wrap;html=1;fontSize=25;" parent="1" vertex="1">
          <mxGeometry x="155" y="1130" width="125" height="50" as="geometry" />
        </mxCell>
        <mxCell id="WUSuxIz9srzla0MGMRCR-78" value="Last name" style="ellipse;whiteSpace=wrap;html=1;fontSize=25;" parent="1" vertex="1">
          <mxGeometry x="210" y="1200" width="120" height="70" as="geometry" />
        </mxCell>
        <mxCell id="WUSuxIz9srzla0MGMRCR-79" value="First name" style="ellipse;whiteSpace=wrap;html=1;fontSize=25;" parent="1" vertex="1">
          <mxGeometry x="90" y="1040" width="155" height="80" as="geometry" />
        </mxCell>
        <mxCell id="WUSuxIz9srzla0MGMRCR-80" value="" style="endArrow=none;html=1;rounded=0;fontSize=25;" parent="1" source="XMGHCFaLuTb-ErzqM0Ou-93" target="WUSuxIz9srzla0MGMRCR-79" edge="1">
          <mxGeometry width="50" height="50" relative="1" as="geometry">
            <mxPoint x="140" y="1110" as="sourcePoint" />
            <mxPoint x="190" y="1060" as="targetPoint" />
          </mxGeometry>
        </mxCell>
        <mxCell id="WUSuxIz9srzla0MGMRCR-81" value="" style="endArrow=none;html=1;rounded=0;fontSize=25;" parent="1" source="XMGHCFaLuTb-ErzqM0Ou-93" target="WUSuxIz9srzla0MGMRCR-77" edge="1">
          <mxGeometry width="50" height="50" relative="1" as="geometry">
            <mxPoint x="280" y="1100" as="sourcePoint" />
            <mxPoint x="330" y="1050" as="targetPoint" />
          </mxGeometry>
        </mxCell>
        <mxCell id="WUSuxIz9srzla0MGMRCR-82" value="" style="endArrow=none;html=1;rounded=0;fontSize=25;" parent="1" source="XMGHCFaLuTb-ErzqM0Ou-93" target="WUSuxIz9srzla0MGMRCR-78" edge="1">
          <mxGeometry width="50" height="50" relative="1" as="geometry">
            <mxPoint x="260" y="1170" as="sourcePoint" />
            <mxPoint x="310" y="1120" as="targetPoint" />
          </mxGeometry>
        </mxCell>
        <mxCell id="WUSuxIz9srzla0MGMRCR-85" value="Date" style="ellipse;whiteSpace=wrap;html=1;fontSize=25;" parent="1" vertex="1">
          <mxGeometry x="-240" y="745" width="105" height="65" as="geometry" />
        </mxCell>
        <mxCell id="WUSuxIz9srzla0MGMRCR-86" value="Used units" style="ellipse;whiteSpace=wrap;html=1;fontSize=25;" parent="1" vertex="1">
          <mxGeometry x="-380" y="680" width="120" height="90" as="geometry" />
        </mxCell>
        <mxCell id="WUSuxIz9srzla0MGMRCR-87" value="" style="endArrow=none;html=1;rounded=0;entryX=0.5;entryY=0;entryDx=0;entryDy=0;fontSize=25;" parent="1" source="WUSuxIz9srzla0MGMRCR-86" target="mCTyANqZK8J9GMuDv6o_-30" edge="1">
          <mxGeometry width="50" height="50" relative="1" as="geometry">
            <mxPoint x="-205" y="575" as="sourcePoint" />
            <mxPoint x="-165" y="735" as="targetPoint" />
          </mxGeometry>
        </mxCell>
        <mxCell id="WUSuxIz9srzla0MGMRCR-88" value="" style="endArrow=none;html=1;rounded=0;fontSize=25;" parent="1" source="WUSuxIz9srzla0MGMRCR-85" edge="1">
          <mxGeometry width="50" height="50" relative="1" as="geometry">
            <mxPoint x="-97.86259682534" y="738.3944860214283" as="sourcePoint" />
            <mxPoint x="-350" y="810" as="targetPoint" />
          </mxGeometry>
        </mxCell>
        <mxCell id="Zb_vISIjfATzehHnLD8i-1" value="Image Url" style="ellipse;whiteSpace=wrap;html=1;fontSize=25;" parent="1" vertex="1">
          <mxGeometry x="130" y="1680" width="145" height="80" as="geometry" />
        </mxCell>
        <mxCell id="SaGzNA4MYIlWDNow6fjE-1" value="NIC" style="ellipse;whiteSpace=wrap;html=1;fontSize=25;" parent="1" vertex="1">
          <mxGeometry x="280" y="1540" width="110" height="60" as="geometry" />
        </mxCell>
        <mxCell id="SaGzNA4MYIlWDNow6fjE-2" value="" style="endArrow=none;html=1;rounded=0;fontSize=25;" parent="1" source="XMGHCFaLuTb-ErzqM0Ou-87" target="SaGzNA4MYIlWDNow6fjE-1" edge="1">
          <mxGeometry width="50" height="50" relative="1" as="geometry">
            <mxPoint x="180" y="1680" as="sourcePoint" />
            <mxPoint x="230" y="1630" as="targetPoint" />
          </mxGeometry>
        </mxCell>
        <mxCell id="SaGzNA4MYIlWDNow6fjE-8" value="NIC" style="ellipse;whiteSpace=wrap;html=1;fontSize=25;" parent="1" vertex="1">
          <mxGeometry x="-1550" y="140" width="140" height="70" as="geometry" />
        </mxCell>
        <mxCell id="SaGzNA4MYIlWDNow6fjE-9" value="" style="endArrow=none;html=1;rounded=0;fontSize=25;" parent="1" source="SaGzNA4MYIlWDNow6fjE-8" target="XMGHCFaLuTb-ErzqM0Ou-1" edge="1">
          <mxGeometry width="50" height="50" relative="1" as="geometry">
            <mxPoint x="-1280" y="290" as="sourcePoint" />
            <mxPoint x="-1230" y="240" as="targetPoint" />
          </mxGeometry>
        </mxCell>
        <mxCell id="SaGzNA4MYIlWDNow6fjE-16" value="" style="endArrow=none;html=1;rounded=0;fontSize=25;" parent="1" source="Zb_vISIjfATzehHnLD8i-1" target="XMGHCFaLuTb-ErzqM0Ou-87" edge="1">
          <mxGeometry width="50" height="50" relative="1" as="geometry">
            <mxPoint x="70" y="1570" as="sourcePoint" />
            <mxPoint x="120" y="1520" as="targetPoint" />
          </mxGeometry>
        </mxCell>
        <mxCell id="SaGzNA4MYIlWDNow6fjE-24" value="Payment Time" style="ellipse;whiteSpace=wrap;html=1;fontSize=25;" parent="1" vertex="1">
          <mxGeometry x="-1190" y="1520" width="190" height="90" as="geometry" />
        </mxCell>
        <mxCell id="SaGzNA4MYIlWDNow6fjE-25" value="" style="endArrow=none;html=1;rounded=0;fontSize=25;" parent="1" source="SaGzNA4MYIlWDNow6fjE-24" target="QH4C9bZdyQ2NckHa1oD1-48" edge="1">
          <mxGeometry width="50" height="50" relative="1" as="geometry">
            <mxPoint x="-1080" y="1510" as="sourcePoint" />
            <mxPoint x="-1030" y="1460" as="targetPoint" />
          </mxGeometry>
        </mxCell>
        <mxCell id="BeR3bM12xx7X0e_XR_oL-1" value="&lt;br style=&quot;font-size: 25px;&quot;&gt;Invoice_time&lt;div style=&quot;font-size: 25px;&quot;&gt;&lt;br style=&quot;font-size: 25px;&quot;&gt;&lt;/div&gt;" style="ellipse;whiteSpace=wrap;html=1;fontSize=25;" parent="1" vertex="1">
          <mxGeometry x="-410" y="1310" width="170" height="70" as="geometry" />
        </mxCell>
        <mxCell id="KWmNkmGv4BMrLDbc9gnQ-1" value="" style="endArrow=none;html=1;rounded=0;fontSize=25;" parent="1" source="XMGHCFaLuTb-ErzqM0Ou-50" target="BeR3bM12xx7X0e_XR_oL-1" edge="1">
          <mxGeometry width="50" height="50" relative="1" as="geometry">
            <mxPoint x="-450" y="1410" as="sourcePoint" />
            <mxPoint x="-400" y="1300" as="targetPoint" />
          </mxGeometry>
        </mxCell>
        <mxCell id="KWmNkmGv4BMrLDbc9gnQ-2" value="repair" style="rounded=0;whiteSpace=wrap;html=1;fillColor=#d5e8d4;strokeColor=#82b366;fontSize=25;" parent="1" vertex="1">
          <mxGeometry x="-395" y="375" width="120" height="60" as="geometry" />
        </mxCell>
        <mxCell id="KWmNkmGv4BMrLDbc9gnQ-3" value="retreading" style="rounded=0;whiteSpace=wrap;html=1;fillColor=#d5e8d4;strokeColor=#82b366;fontSize=25;" parent="1" vertex="1">
          <mxGeometry x="-200" y="480" width="120" height="60" as="geometry" />
        </mxCell>
        <mxCell id="KWmNkmGv4BMrLDbc9gnQ-5" value="M" style="text;html=1;align=center;verticalAlign=middle;resizable=0;points=[];autosize=1;strokeColor=none;fillColor=none;fontSize=25;" parent="1" vertex="1">
          <mxGeometry x="-1240" y="665" width="40" height="40" as="geometry" />
        </mxCell>
        <mxCell id="KWmNkmGv4BMrLDbc9gnQ-6" value="Emp_ID" style="ellipse;whiteSpace=wrap;html=1;fontStyle=4;fontSize=25;" parent="1" vertex="1">
          <mxGeometry x="-10" y="1280" width="100" height="60" as="geometry" />
        </mxCell>
        <mxCell id="KWmNkmGv4BMrLDbc9gnQ-8" value="" style="endArrow=none;html=1;rounded=0;fontSize=16;" parent="1" source="WUSuxIz9srzla0MGMRCR-53" target="KWmNkmGv4BMrLDbc9gnQ-6" edge="1">
          <mxGeometry width="50" height="50" relative="1" as="geometry">
            <mxPoint x="-170" y="1220" as="sourcePoint" />
            <mxPoint x="-120" y="1170" as="targetPoint" />
          </mxGeometry>
        </mxCell>
        <mxCell id="_7z7WYXmwQ3iHhL43uiS-1" value="Username" style="ellipse;whiteSpace=wrap;html=1;fontSize=25;" parent="1" vertex="1">
          <mxGeometry x="-480" y="1140" width="120" height="60" as="geometry" />
        </mxCell>
        <mxCell id="_7z7WYXmwQ3iHhL43uiS-2" value="Password" style="ellipse;whiteSpace=wrap;html=1;fontSize=25;" parent="1" vertex="1">
          <mxGeometry x="-415" y="1210" width="120" height="60" as="geometry" />
        </mxCell>
        <mxCell id="_7z7WYXmwQ3iHhL43uiS-3" value="" style="endArrow=none;html=1;rounded=0;fontSize=25;" parent="1" source="_7z7WYXmwQ3iHhL43uiS-1" target="WUSuxIz9srzla0MGMRCR-53" edge="1">
          <mxGeometry width="50" height="50" relative="1" as="geometry">
            <mxPoint x="-510" y="1160" as="sourcePoint" />
            <mxPoint x="-460" y="1110" as="targetPoint" />
          </mxGeometry>
        </mxCell>
        <mxCell id="_7z7WYXmwQ3iHhL43uiS-4" value="" style="endArrow=none;html=1;rounded=0;fontSize=25;" parent="1" source="_7z7WYXmwQ3iHhL43uiS-2" target="WUSuxIz9srzla0MGMRCR-53" edge="1">
          <mxGeometry width="50" height="50" relative="1" as="geometry">
            <mxPoint x="-270" y="1340" as="sourcePoint" />
            <mxPoint x="-220" y="1290" as="targetPoint" />
          </mxGeometry>
        </mxCell>
        <mxCell id="_7z7WYXmwQ3iHhL43uiS-5" value="Username" style="ellipse;whiteSpace=wrap;html=1;fontSize=25;" parent="1" vertex="1">
          <mxGeometry x="-900" y="120" width="150" height="80" as="geometry" />
        </mxCell>
        <mxCell id="_7z7WYXmwQ3iHhL43uiS-6" value="Password" style="ellipse;whiteSpace=wrap;html=1;fontSize=25;" parent="1" vertex="1">
          <mxGeometry x="-910" y="230" width="145" height="70" as="geometry" />
        </mxCell>
        <mxCell id="_7z7WYXmwQ3iHhL43uiS-7" value="" style="endArrow=none;html=1;rounded=0;fontSize=25;" parent="1" source="XMGHCFaLuTb-ErzqM0Ou-1" target="_7z7WYXmwQ3iHhL43uiS-5" edge="1">
          <mxGeometry width="50" height="50" relative="1" as="geometry">
            <mxPoint x="-1010" y="320" as="sourcePoint" />
            <mxPoint x="-960" y="270" as="targetPoint" />
          </mxGeometry>
        </mxCell>
        <mxCell id="_7z7WYXmwQ3iHhL43uiS-8" value="" style="endArrow=none;html=1;rounded=0;fontSize=25;" parent="1" source="XMGHCFaLuTb-ErzqM0Ou-1" target="_7z7WYXmwQ3iHhL43uiS-6" edge="1">
          <mxGeometry width="50" height="50" relative="1" as="geometry">
            <mxPoint x="-960" y="350" as="sourcePoint" />
            <mxPoint x="-910" y="300" as="targetPoint" />
          </mxGeometry>
        </mxCell>
        <mxCell id="_7z7WYXmwQ3iHhL43uiS-9" value="Owner_Key" style="ellipse;whiteSpace=wrap;html=1;fontSize=25;" parent="1" vertex="1">
          <mxGeometry x="-420" y="1615" width="150" height="65" as="geometry" />
        </mxCell>
        <mxCell id="_7z7WYXmwQ3iHhL43uiS-10" value="" style="endArrow=none;html=1;rounded=0;fontSize=25;" parent="1" source="_7z7WYXmwQ3iHhL43uiS-9" target="WUSuxIz9srzla0MGMRCR-58" edge="1">
          <mxGeometry width="50" height="50" relative="1" as="geometry">
            <mxPoint x="-380" y="1560" as="sourcePoint" />
            <mxPoint x="-330" y="1510" as="targetPoint" />
          </mxGeometry>
        </mxCell>
        <mxCell id="SqlWrs2OMqavRhzAaXAz-5" value="Notice" style="rounded=0;whiteSpace=wrap;html=1;fillColor=#d5e8d4;strokeColor=#82b366;fontSize=25;" vertex="1" parent="1">
          <mxGeometry x="-162.5" y="1790" width="155" height="90" as="geometry" />
        </mxCell>
        <mxCell id="SqlWrs2OMqavRhzAaXAz-7" value="&lt;font style=&quot;font-size: 25px;&quot;&gt;make&lt;/font&gt;" style="rhombus;whiteSpace=wrap;html=1;fillColor=#dae8fc;strokeColor=#6c8ebf;fontSize=16;" vertex="1" parent="1">
          <mxGeometry x="-160" y="1607.5" width="150" height="80" as="geometry" />
        </mxCell>
        <mxCell id="SqlWrs2OMqavRhzAaXAz-9" value="" style="endArrow=none;html=1;rounded=0;fontSize=16;exitX=0.5;exitY=0;exitDx=0;exitDy=0;" edge="1" parent="1" source="SqlWrs2OMqavRhzAaXAz-7" target="XMGHCFaLuTb-ErzqM0Ou-87">
          <mxGeometry width="50" height="50" relative="1" as="geometry">
            <mxPoint x="65" y="1700" as="sourcePoint" />
            <mxPoint x="100" y="1480" as="targetPoint" />
          </mxGeometry>
        </mxCell>
        <mxCell id="SqlWrs2OMqavRhzAaXAz-12" value="1" style="edgeLabel;html=1;align=center;verticalAlign=middle;resizable=0;points=[];" vertex="1" connectable="0" parent="SqlWrs2OMqavRhzAaXAz-9">
          <mxGeometry x="0.6766" y="-5" relative="1" as="geometry">
            <mxPoint x="-1" as="offset" />
          </mxGeometry>
        </mxCell>
        <mxCell id="SqlWrs2OMqavRhzAaXAz-10" style="edgeStyle=orthogonalEdgeStyle;rounded=0;orthogonalLoop=1;jettySize=auto;html=1;exitX=0.5;exitY=1;exitDx=0;exitDy=0;" edge="1" parent="1" source="SqlWrs2OMqavRhzAaXAz-5" target="SqlWrs2OMqavRhzAaXAz-5">
          <mxGeometry relative="1" as="geometry" />
        </mxCell>
        <mxCell id="SqlWrs2OMqavRhzAaXAz-11" value="" style="edgeStyle=orthogonalEdgeStyle;rounded=0;orthogonalLoop=1;jettySize=auto;html=1;endArrow=none;endFill=0;fontSize=16;" edge="1" parent="1" source="SqlWrs2OMqavRhzAaXAz-7" target="SqlWrs2OMqavRhzAaXAz-8">
          <mxGeometry relative="1" as="geometry">
            <mxPoint x="-85" y="1688" as="sourcePoint" />
            <mxPoint x="-85" y="1790" as="targetPoint" />
          </mxGeometry>
        </mxCell>
        <mxCell id="SqlWrs2OMqavRhzAaXAz-8" value="M" style="text;html=1;align=center;verticalAlign=middle;resizable=0;points=[];autosize=1;strokeColor=none;fillColor=none;fontSize=25;" vertex="1" parent="1">
          <mxGeometry x="-105" y="1755" width="40" height="40" as="geometry" />
        </mxCell>
        <mxCell id="SqlWrs2OMqavRhzAaXAz-14" value="NoticeID" style="ellipse;whiteSpace=wrap;html=1;fontSize=25;" vertex="1" parent="1">
          <mxGeometry x="-440" y="1740" width="145" height="60" as="geometry" />
        </mxCell>
        <mxCell id="SqlWrs2OMqavRhzAaXAz-15" value="Notice" style="ellipse;whiteSpace=wrap;html=1;fontSize=25;" vertex="1" parent="1">
          <mxGeometry x="-420" y="1825.11" width="150" height="64.89" as="geometry" />
        </mxCell>
        <mxCell id="SqlWrs2OMqavRhzAaXAz-16" value="created at" style="ellipse;whiteSpace=wrap;html=1;fontSize=25;" vertex="1" parent="1">
          <mxGeometry x="-370" y="1910" width="150" height="64.89" as="geometry" />
        </mxCell>
        <mxCell id="SqlWrs2OMqavRhzAaXAz-17" value="" style="endArrow=none;html=1;rounded=0;" edge="1" parent="1" source="SqlWrs2OMqavRhzAaXAz-14" target="SqlWrs2OMqavRhzAaXAz-5">
          <mxGeometry width="50" height="50" relative="1" as="geometry">
            <mxPoint x="-260" y="1820" as="sourcePoint" />
            <mxPoint x="-210" y="1770" as="targetPoint" />
          </mxGeometry>
        </mxCell>
        <mxCell id="SqlWrs2OMqavRhzAaXAz-18" value="" style="endArrow=none;html=1;rounded=0;" edge="1" parent="1" source="SqlWrs2OMqavRhzAaXAz-15" target="SqlWrs2OMqavRhzAaXAz-5">
          <mxGeometry width="50" height="50" relative="1" as="geometry">
            <mxPoint x="-294" y="1795" as="sourcePoint" />
            <mxPoint x="-152" y="1827" as="targetPoint" />
          </mxGeometry>
        </mxCell>
        <mxCell id="SqlWrs2OMqavRhzAaXAz-19" value="" style="endArrow=none;html=1;rounded=0;" edge="1" parent="1" source="SqlWrs2OMqavRhzAaXAz-16" target="SqlWrs2OMqavRhzAaXAz-5">
          <mxGeometry width="50" height="50" relative="1" as="geometry">
            <mxPoint x="-261" y="1861" as="sourcePoint" />
            <mxPoint x="-152" y="1852" as="targetPoint" />
          </mxGeometry>
        </mxCell>
        <mxCell id="SqlWrs2OMqavRhzAaXAz-20" value="&lt;font style=&quot;font-size: 25px;&quot;&gt;make&lt;/font&gt;" style="rhombus;whiteSpace=wrap;html=1;fillColor=#dae8fc;strokeColor=#6c8ebf;fontSize=16;" vertex="1" parent="1">
          <mxGeometry x="-600" y="1560" width="150" height="80" as="geometry" />
        </mxCell>
        <mxCell id="SqlWrs2OMqavRhzAaXAz-21" value="" style="endArrow=none;html=1;rounded=0;" edge="1" parent="1" source="SqlWrs2OMqavRhzAaXAz-20" target="WUSuxIz9srzla0MGMRCR-58">
          <mxGeometry width="50" height="50" relative="1" as="geometry">
            <mxPoint x="-390" y="1580" as="sourcePoint" />
            <mxPoint x="-340" y="1530" as="targetPoint" />
          </mxGeometry>
        </mxCell>
        <mxCell id="SqlWrs2OMqavRhzAaXAz-32" value="1" style="edgeLabel;html=1;align=center;verticalAlign=middle;resizable=0;points=[];" vertex="1" connectable="0" parent="SqlWrs2OMqavRhzAaXAz-21">
          <mxGeometry x="0.5613" y="1" relative="1" as="geometry">
            <mxPoint x="-1" as="offset" />
          </mxGeometry>
        </mxCell>
        <mxCell id="SqlWrs2OMqavRhzAaXAz-22" value="our_product" style="rounded=0;whiteSpace=wrap;html=1;fillColor=#d5e8d4;strokeColor=#82b366;fontSize=25;" vertex="1" parent="1">
          <mxGeometry x="-817.5" y="1635" width="155" height="90" as="geometry" />
        </mxCell>
        <mxCell id="SqlWrs2OMqavRhzAaXAz-23" style="edgeStyle=orthogonalEdgeStyle;rounded=0;orthogonalLoop=1;jettySize=auto;html=1;exitX=0.5;exitY=1;exitDx=0;exitDy=0;" edge="1" parent="1" source="SqlWrs2OMqavRhzAaXAz-22" target="SqlWrs2OMqavRhzAaXAz-22">
          <mxGeometry relative="1" as="geometry" />
        </mxCell>
        <mxCell id="SqlWrs2OMqavRhzAaXAz-25" value="description" style="ellipse;whiteSpace=wrap;html=1;fontSize=25;" vertex="1" parent="1">
          <mxGeometry x="-1075" y="1845.11" width="150" height="64.89" as="geometry" />
        </mxCell>
        <mxCell id="SqlWrs2OMqavRhzAaXAz-26" value="productName" style="ellipse;whiteSpace=wrap;html=1;fontSize=25;" vertex="1" parent="1">
          <mxGeometry x="-930" y="1870" width="185" height="75" as="geometry" />
        </mxCell>
        <mxCell id="SqlWrs2OMqavRhzAaXAz-27" value="" style="endArrow=none;html=1;rounded=0;" edge="1" parent="1" target="SqlWrs2OMqavRhzAaXAz-22" source="SqlWrs2OMqavRhzAaXAz-33">
          <mxGeometry width="50" height="50" relative="1" as="geometry">
            <mxPoint x="-959" y="1629" as="sourcePoint" />
            <mxPoint x="-865" y="1615" as="targetPoint" />
          </mxGeometry>
        </mxCell>
        <mxCell id="SqlWrs2OMqavRhzAaXAz-28" value="" style="endArrow=none;html=1;rounded=0;" edge="1" parent="1" source="SqlWrs2OMqavRhzAaXAz-25" target="SqlWrs2OMqavRhzAaXAz-22">
          <mxGeometry width="50" height="50" relative="1" as="geometry">
            <mxPoint x="-949" y="1640" as="sourcePoint" />
            <mxPoint x="-807" y="1672" as="targetPoint" />
          </mxGeometry>
        </mxCell>
        <mxCell id="SqlWrs2OMqavRhzAaXAz-29" value="" style="endArrow=none;html=1;rounded=0;" edge="1" parent="1" source="SqlWrs2OMqavRhzAaXAz-26" target="SqlWrs2OMqavRhzAaXAz-22">
          <mxGeometry width="50" height="50" relative="1" as="geometry">
            <mxPoint x="-916" y="1706" as="sourcePoint" />
            <mxPoint x="-807" y="1697" as="targetPoint" />
          </mxGeometry>
        </mxCell>
        <mxCell id="SqlWrs2OMqavRhzAaXAz-30" value="" style="endArrow=none;html=1;rounded=0;" edge="1" parent="1" source="SqlWrs2OMqavRhzAaXAz-24" target="SqlWrs2OMqavRhzAaXAz-20">
          <mxGeometry width="50" height="50" relative="1" as="geometry">
            <mxPoint x="-662.5" y="1730" as="sourcePoint" />
            <mxPoint x="-591.7893218813452" y="1680" as="targetPoint" />
          </mxGeometry>
        </mxCell>
        <mxCell id="SqlWrs2OMqavRhzAaXAz-31" value="" style="endArrow=none;html=1;rounded=0;" edge="1" parent="1" source="SqlWrs2OMqavRhzAaXAz-22" target="SqlWrs2OMqavRhzAaXAz-24">
          <mxGeometry width="50" height="50" relative="1" as="geometry">
            <mxPoint x="-662" y="1651" as="sourcePoint" />
            <mxPoint x="-569" y="1616" as="targetPoint" />
          </mxGeometry>
        </mxCell>
        <mxCell id="SqlWrs2OMqavRhzAaXAz-24" value="M" style="text;html=1;align=center;verticalAlign=middle;resizable=0;points=[];autosize=1;strokeColor=none;fillColor=none;fontSize=25;" vertex="1" parent="1">
          <mxGeometry x="-652.5" y="1620" width="40" height="40" as="geometry" />
        </mxCell>
        <mxCell id="SqlWrs2OMqavRhzAaXAz-33" value="productID" style="ellipse;whiteSpace=wrap;html=1;fontSize=25;" vertex="1" parent="1">
          <mxGeometry x="-780" y="1820" width="145" height="60" as="geometry" />
        </mxCell>
        <mxCell id="SqlWrs2OMqavRhzAaXAz-36" value="price" style="ellipse;whiteSpace=wrap;html=1;fontSize=25;" vertex="1" parent="1">
          <mxGeometry x="-1120" y="1737.5" width="155" height="72.5" as="geometry" />
        </mxCell>
        <mxCell id="SqlWrs2OMqavRhzAaXAz-37" value="ImageURL" style="ellipse;whiteSpace=wrap;html=1;fontSize=25;" vertex="1" parent="1">
          <mxGeometry x="-1155" y="1660" width="145" height="60" as="geometry" />
        </mxCell>
        <mxCell id="SqlWrs2OMqavRhzAaXAz-38" value="" style="endArrow=none;html=1;rounded=0;" edge="1" parent="1" source="SqlWrs2OMqavRhzAaXAz-37" target="SqlWrs2OMqavRhzAaXAz-22">
          <mxGeometry width="50" height="50" relative="1" as="geometry">
            <mxPoint x="-940" y="1720" as="sourcePoint" />
            <mxPoint x="-890" y="1670" as="targetPoint" />
          </mxGeometry>
        </mxCell>
        <mxCell id="SqlWrs2OMqavRhzAaXAz-39" value="" style="endArrow=none;html=1;rounded=0;" edge="1" parent="1" source="SqlWrs2OMqavRhzAaXAz-36" target="SqlWrs2OMqavRhzAaXAz-22">
          <mxGeometry width="50" height="50" relative="1" as="geometry">
            <mxPoint x="-920" y="1780" as="sourcePoint" />
            <mxPoint x="-870" y="1730" as="targetPoint" />
          </mxGeometry>
        </mxCell>
      </root>
    </mxGraphModel>
  </diagram>
</mxfile>
